<svg width="1238" height="290" viewBox="0 0 1238 290" fill="none" xmlns="http://www.w3.org/2000/svg">
<g clip-path="url(#clip0_293_17)">
<path fill-rule="evenodd" clip-rule="evenodd" d="M733.63 122.105H718.346V137.368H703.064V152.631L641.926 152.632V167.897L733.63 167.895V167.897H733.632L733.63 259.474H718.346V274.737H705.1V290H687.778V198.423H641.926V290.002L596.074 290V198.423H580.792V167.897H596.074V152.632H580.792V122.104H596.074V45.7885H611.358V30.5284H626.642V15.2632H733.632L733.63 122.105ZM641.926 122.104H687.778V45.7915H641.926V122.104Z" fill="#A8CD76"/>
<path fill-rule="evenodd" clip-rule="evenodd" d="M106.988 30.5283H122.272V45.7885H137.556V228.947H122.272V244.211H106.988V259.476H30.5679V244.211H15.284V228.947H0V45.7885H15.284V30.5283H30.5679V15.2632H106.988V30.5283ZM45.8519 228.947H91.7037V45.7915H45.8519V228.947Z" fill="#A8CD76"/>
<path d="M305.679 15.2632H366.815V30.5263H382.099V45.7885H397.383V228.947H382.099V244.211H366.815V259.474H351.531L351.527 45.7915H305.681V45.7895H305.679V259.476H259.827V45.7915H213.977V228.946H213.975V259.476H198.691V244.211H183.407V228.947H168.125V45.7885H183.407V30.5263H198.691V15.2632H259.827V0H305.679V15.2632Z" fill="#A8CD76"/>
<path fill-rule="evenodd" clip-rule="evenodd" d="M565.506 228.947H550.222V244.211H534.938V259.474H519.654V152.631L473.805 152.632V259.476H427.951V152.632H412.667V122.104H427.951V45.7885H443.237V30.5283H458.521V15.2632H565.508L565.506 228.947ZM473.805 122.104H519.654V45.7915H473.805V122.104Z" fill="#A8CD76"/>
<path d="M901.753 76.3158H886.469V91.5789H871.185V106.842H855.901V45.7915H810.049V228.947H855.901V167.897H871.185V183.157H886.469V198.421H901.753V228.947H886.469V244.211H871.185V259.476L764.198 259.474V45.7885H779.479V30.5283H794.765V15.2632H901.753V76.3158Z" fill="#A8CD76"/>
<path d="M978.173 122.104H1024.02V15.2632H1039.31V30.5263H1054.59V45.7885H1069.88V122.105H1085.16V137.368H1069.88V228.947H1054.59V244.211H1039.31V259.474H1024.02V152.632H978.173V259.476L932.321 259.474V152.632H901.753V137.368H917.037V122.104H932.321V45.7885H947.605V30.5283H962.889V15.2632H978.173V122.104Z" fill="#A8CD76"/>
<path d="M1146.3 122.104H1192.15V15.2632H1207.43V30.5263H1222.72V45.7895H1238V228.947H1222.72V244.211H1207.43V259.476L1131.01 259.474V244.211H1115.73V228.947H1100.44V183.157H1115.73V167.897V167.895H1146.3V228.947H1192.15V152.632H1100.44V45.7885H1115.73V30.5283H1131.01V15.2632H1146.3V122.104Z" fill="#A8CD76"/>
</g>
<defs>
<clipPath id="clip0_293_17">
<rect width="1238" height="290" fill="white"/>
</clipPath>
</defs>
</svg>
